<svg width="700" height="350" viewBox="0 0 700 350" fill="none" xmlns="http://www.w3.org/2000/svg">
<g filter="url(#filter0_d_1103_2)">
<path d="M124.91 6.71005V20.0601C124.91 21.8291 124.207 23.5256 122.956 24.7765C121.706 26.0273 120.009 26.73 118.24 26.73H87.65C86.7754 26.73 85.9094 26.9023 85.1013 27.237C84.2933 27.5717 83.5591 28.0623 82.9407 28.6807C82.3222 29.2992 81.8317 30.0333 81.497 30.8414C81.1623 31.6494 80.99 32.5154 80.99 33.39V158.21C80.99 159.979 80.2873 161.676 79.0364 162.926C77.7855 164.177 76.089 164.88 74.32 164.88H54.59C52.8227 164.877 51.1288 164.173 49.8801 162.923C48.6314 161.672 47.93 159.977 47.93 158.21V33.39C47.9274 31.6228 47.2234 29.9288 45.9729 28.6801C44.7223 27.4314 43.0273 26.73 41.26 26.73H10.67C8.901 26.73 7.20447 26.0273 5.9536 24.7765C4.70273 23.5256 4 21.8291 4 20.0601V6.71005C4 4.94106 4.70273 3.24452 5.9536 1.99365C7.20447 0.742785 8.901 0.0400391 10.67 0.0400391H118.24C120.009 0.0400391 121.706 0.742785 122.956 1.99365C124.207 3.24452 124.91 4.94106 124.91 6.71005Z" fill="#FDB022"/>
<path d="M425.13 12.2001L376.64 105.69C376.021 106.872 375.698 108.186 375.7 109.52V156.52C375.701 157.614 375.487 158.697 375.07 159.707C374.652 160.718 374.039 161.636 373.267 162.41C372.494 163.183 371.576 163.797 370.566 164.216C369.556 164.635 368.473 164.85 367.38 164.85H350.96C348.753 164.847 346.636 163.969 345.076 162.407C343.516 160.845 342.64 158.728 342.64 156.52V109.52C342.641 108.18 342.319 106.859 341.7 105.67L293.01 12.2001C292.351 10.9279 292.032 9.5073 292.082 8.07556C292.133 6.64383 292.552 5.24932 293.299 4.02683C294.046 2.80434 295.096 1.79517 296.347 1.09681C297.598 0.398436 299.007 0.0344732 300.44 0.0401034H318.75C320.329 0.0399761 321.876 0.4894 323.21 1.33585C324.543 2.1823 325.608 3.3908 326.28 4.8201L351.85 59.3301C352.521 60.7624 353.586 61.974 354.92 62.8227C356.255 63.6714 357.803 64.1222 359.385 64.1222C360.967 64.1222 362.515 63.6714 363.85 62.8227C365.184 61.974 366.249 60.7624 366.92 59.3301L392.35 4.89011C393.02 3.45553 394.085 2.24185 395.421 1.3916C396.756 0.541363 398.307 0.0898744 399.89 0.0901217H417.74C419.162 0.0957457 420.559 0.465457 421.798 1.16404C423.037 1.86261 424.077 2.86677 424.818 4.08087C425.559 5.29498 425.976 6.67857 426.031 8.09983C426.086 9.52108 425.775 10.9327 425.13 12.2001Z" fill="#FDB022"/>
<path d="M234.89 101.54C234.65 101.138 234.503 100.687 234.459 100.221C234.414 99.7545 234.474 99.2842 234.634 98.844C234.794 98.4037 235.05 98.0045 235.383 97.6752C235.716 97.3459 236.118 97.0948 236.56 96.94C247.147 93.4666 255.27 87.8 260.93 79.94C267.162 71.4124 270.476 61.1016 270.38 50.54C270.498 41.5482 268.172 32.6931 263.65 24.92C259.163 17.28 252.433 11.2166 243.46 6.72998C234.487 2.24331 223.623 0 210.87 0H162.12C158.64 0 155.303 1.38227 152.843 3.84274C150.382 6.30322 149 9.64036 149 13.12V99.33C149 99.7471 148.918 100.16 148.758 100.545C148.598 100.931 148.363 101.281 148.068 101.575C147.773 101.87 147.422 102.103 147.036 102.262C146.65 102.42 146.237 102.501 145.82 102.5C145.175 102.504 144.546 102.703 144.017 103.073C143.488 103.442 143.084 103.963 142.859 104.567C142.633 105.172 142.596 105.83 142.754 106.456C142.911 107.082 143.255 107.644 143.74 108.07L164.3 125.95C164.892 126.462 165.651 126.738 166.433 126.725C167.216 126.712 167.966 126.411 168.54 125.88L187.79 108C188.259 107.567 188.587 107.002 188.73 106.379C188.873 105.757 188.825 105.106 188.591 104.511C188.358 103.917 187.95 103.406 187.422 103.048C186.893 102.689 186.269 102.498 185.63 102.5H185.23C184.389 102.5 183.583 102.166 182.988 101.572C182.394 100.977 182.06 100.171 182.06 99.33V30.61C182.06 30.1937 182.142 29.7815 182.301 29.3969C182.461 29.0123 182.694 28.6628 182.988 28.3685C183.283 28.0741 183.632 27.8406 184.017 27.6813C184.401 27.522 184.814 27.44 185.23 27.44H209.69C218.663 27.44 225.353 29.5233 229.76 33.69C234.167 37.8566 236.37 43.7367 236.37 51.33C236.37 59.05 234.167 65.0733 229.76 69.4C225.353 73.7267 218.663 75.8933 209.69 75.9H193.52C192.976 75.9006 192.441 76.0413 191.967 76.3084C191.493 76.5756 191.096 76.9602 190.814 77.4253C190.531 77.8904 190.374 78.4203 190.355 78.9641C190.337 79.5078 190.459 80.0471 190.71 80.53L202.81 103.75L237.01 163.33C237.287 163.815 237.688 164.218 238.17 164.499C238.653 164.779 239.201 164.928 239.76 164.93H266.71C267.27 164.931 267.821 164.783 268.306 164.502C268.79 164.221 269.192 163.816 269.469 163.33C269.747 162.843 269.89 162.291 269.885 161.731C269.88 161.171 269.726 160.622 269.44 160.14L234.89 101.54Z" fill="#FDB022"/>
<path d="M11.75 339.93L13.02 220.57C13.02 220.57 36.02 215.79 44.02 233.28C44.02 233.28 56.55 214.98 80.35 215.43C104.15 215.88 115.35 236.89 115.35 236.89C115.35 236.89 125.72 212.62 159.17 215.42C192.62 218.22 195.23 251.58 195.23 251.58V339.93H157.63V308.93C157.63 308.93 173.32 302.61 169.35 280.62C165.38 258.63 151.14 248.71 151.14 248.71C151.14 248.71 146.64 246.54 142.49 248.53C138.34 250.52 126.26 264.39 124.28 279.18C122.3 293.97 131.13 307.3 136.72 309.83L137.08 339.94H78.44V310.18C78.44 310.18 90.52 305.31 89.8 292.18C89.08 279.05 86.56 276.13 83.31 248.91L79.71 248.73V294.13H75.71V248.13H70.84V294.33H65.84V248.33H60.98V294.33H55.98V248.7H52.37C52.37 248.7 47.37 284.21 47.14 293.41C46.91 302.61 52.91 310 59.58 309.64V339.93H11.75Z" fill="#2C2C2C"/>
<path d="M335.78 286.48H258.78C258.069 286.474 257.366 286.627 256.722 286.929C256.079 287.23 255.511 287.672 255.06 288.221C254.609 288.771 254.287 289.414 254.118 290.104C253.948 290.795 253.935 291.514 254.08 292.21C255.023 296.831 257.345 301.057 260.74 304.33C265.147 308.444 270.993 310.663 277.02 310.51C285.64 310.51 291.9 307.237 295.8 300.69C296.261 299.967 296.901 299.374 297.658 298.97C298.414 298.565 299.262 298.362 300.12 298.38H331.33C332.104 298.378 332.867 298.564 333.553 298.922C334.239 299.279 334.829 299.797 335.271 300.432C335.713 301.067 335.995 301.8 336.093 302.567C336.19 303.335 336.1 304.115 335.83 304.84C333.617 310.57 330.479 315.897 326.54 320.61C320.968 327.283 313.937 332.586 305.99 336.11C297.295 339.947 287.873 341.861 278.37 341.72C266.09 341.72 255.16 339.103 245.58 333.87C236.083 328.708 228.282 320.908 223.12 311.41C217.733 301.67 215.04 290.29 215.04 277.27C215.04 264.25 217.707 252.87 223.04 243.13C228.131 233.623 235.898 225.818 245.38 220.68C254.96 215.44 265.96 212.817 278.38 212.81C290.507 212.81 301.287 215.357 310.72 220.45C320.036 225.429 327.717 232.992 332.84 242.23C338.173 251.67 340.84 262.67 340.84 275.23C340.84 277.423 340.757 279.67 340.59 281.97C340.514 283.193 339.973 284.341 339.079 285.179C338.186 286.017 337.005 286.482 335.78 286.48V286.48ZM296.15 265.14C296.888 265.134 297.615 264.959 298.274 264.627C298.934 264.296 299.508 263.818 299.953 263.229C300.399 262.641 300.703 261.958 300.843 261.234C300.983 260.509 300.955 259.762 300.76 259.05C299.805 255.296 297.709 251.932 294.76 249.42C290.267 245.533 284.653 243.587 277.92 243.58C271.99 243.405 266.2 245.404 261.64 249.2C258.688 251.725 256.439 254.97 255.11 258.62C254.831 259.346 254.733 260.129 254.824 260.902C254.915 261.674 255.193 262.413 255.632 263.054C256.072 263.696 256.661 264.221 257.349 264.584C258.037 264.947 258.802 265.138 259.58 265.14H296.15Z" fill="#2C2C2C"/>
<path d="M472.52 227.52C481.28 237.04 485.66 250.107 485.66 266.72V335.16C485.657 336.424 485.154 337.636 484.26 338.53C483.366 339.424 482.154 339.927 480.89 339.93H452.25C450.985 339.93 449.772 339.427 448.877 338.533C447.983 337.638 447.48 336.425 447.48 335.16V271.88C447.453 263.513 445.283 256.997 440.97 252.33C436.657 247.663 430.817 245.33 423.45 245.33C416.117 245.33 410.277 247.663 405.93 252.33C401.583 256.997 399.42 263.513 399.44 271.88V335.16C399.44 336.425 398.937 337.638 398.043 338.533C397.148 339.427 395.935 339.93 394.67 339.93H365.78C364.516 339.927 363.304 339.424 362.41 338.53C361.516 337.636 361.013 336.424 361.01 335.16V219.38C361.01 218.115 361.513 216.902 362.407 216.007C363.302 215.113 364.515 214.61 365.78 214.61H394.65C395.277 214.609 395.898 214.731 396.477 214.97C397.056 215.21 397.583 215.561 398.026 216.004C398.469 216.447 398.82 216.974 399.06 217.553C399.299 218.132 399.421 218.753 399.42 219.38V219.38C399.417 220.269 399.663 221.141 400.132 221.896C400.6 222.652 401.271 223.26 402.069 223.652C402.867 224.045 403.759 224.204 404.643 224.114C405.527 224.023 406.368 223.686 407.07 223.14C409.57 221.184 412.276 219.508 415.14 218.14C422.08 214.843 429.687 213.191 437.37 213.31C452.043 213.277 463.76 218.013 472.52 227.52Z" fill="#2C2C2C"/>
<path d="M636.12 219.38V335.16C636.12 336.423 635.619 337.635 634.726 338.529C633.834 339.424 632.623 339.927 631.36 339.93H602.49C601.226 339.927 600.014 339.424 599.12 338.53C598.226 337.636 597.723 336.424 597.72 335.16V334.75C597.727 333.859 597.482 332.983 597.013 332.225C596.544 331.467 595.871 330.857 595.07 330.465C594.269 330.073 593.374 329.915 592.488 330.01C591.601 330.105 590.76 330.448 590.06 331C587.524 333.017 584.786 334.766 581.89 336.22C575.027 339.655 567.444 341.407 559.77 341.33C550.217 341.33 541.773 339.18 534.44 334.88C527.013 330.541 521.051 324.081 517.32 316.33C513.28 308.243 511.26 298.737 511.26 287.81V219.38C511.259 218.753 511.381 218.132 511.62 217.553C511.86 216.974 512.211 216.447 512.654 216.004C513.097 215.561 513.624 215.21 514.203 214.97C514.782 214.731 515.403 214.609 516.03 214.61H544.67C545.935 214.61 547.148 215.113 548.043 216.007C548.937 216.902 549.44 218.115 549.44 219.38V282.66C549.44 291.04 551.61 297.553 555.95 302.2C560.29 306.847 566.13 309.18 573.47 309.2C580.95 309.2 586.863 306.867 591.21 302.2C595.557 297.533 597.727 291.02 597.72 282.66V219.38C597.72 218.115 598.223 216.902 599.117 216.007C600.012 215.113 601.225 214.61 602.49 214.61H631.36C631.986 214.61 632.606 214.734 633.184 214.973C633.762 215.213 634.287 215.565 634.729 216.008C635.172 216.451 635.522 216.977 635.761 217.555C635.999 218.134 636.121 218.754 636.12 219.38V219.38Z" fill="#2C2C2C"/>
<path d="M466.58 157.47V170.87C466.58 171.615 466.284 172.33 465.757 172.857C465.23 173.384 464.515 173.68 463.77 173.68H455.17C447.043 173.68 440.71 171.68 436.17 167.68C431.63 163.68 429.357 157.187 429.35 148.2V121.93C429.35 121.185 429.054 120.47 428.527 119.943C428 119.416 427.285 119.12 426.54 119.12H423.24C422.5 119.118 421.791 118.823 421.267 118.301C420.742 117.778 420.445 117.07 420.44 116.33V103.33C420.44 102.585 420.736 101.87 421.263 101.343C421.79 100.816 422.505 100.52 423.25 100.52H426.55C427.295 100.52 428.01 100.224 428.537 99.6971C429.064 99.1701 429.36 98.4554 429.36 97.7101V79.4301C429.36 78.6849 429.656 77.9701 430.183 77.4431C430.71 76.9162 431.425 76.6201 432.17 76.6201H448.98C449.725 76.6201 450.44 76.9162 450.967 77.4431C451.494 77.9701 451.79 78.6849 451.79 79.4301V97.6801C451.79 98.4254 452.086 99.1401 452.613 99.6671C453.14 100.194 453.855 100.49 454.6 100.49H463.67C464.414 100.501 465.123 100.805 465.642 101.338C466.161 101.87 466.448 102.587 466.44 103.33V116.33C466.44 117.075 466.144 117.79 465.617 118.317C465.09 118.844 464.375 119.14 463.63 119.14H454.56C453.815 119.14 453.1 119.436 452.573 119.963C452.046 120.49 451.75 121.205 451.75 121.95V148.52C451.75 150.7 452.27 152.28 453.32 153.24C454.37 154.2 456.12 154.68 458.57 154.68H463.76C464.504 154.677 465.218 154.97 465.746 155.493C466.275 156.015 466.575 156.727 466.58 157.47V157.47Z" fill="#2C2C2C"/>
<path d="M544.22 108.04C549.293 113.587 551.83 121.213 551.83 130.92V170.62C551.83 171.432 551.508 172.21 550.934 172.784C550.36 173.358 549.582 173.68 548.77 173.68H532.59C531.778 173.68 531 173.358 530.426 172.784C529.852 172.21 529.53 171.432 529.53 170.62V133.94C529.53 129.04 528.263 125.237 525.73 122.53C524.412 121.163 522.818 120.093 521.054 119.391C519.29 118.69 517.397 118.372 515.5 118.46C511.213 118.46 507.803 119.817 505.27 122.53C502.737 125.243 501.46 129.047 501.44 133.94V170.62C501.44 171.432 501.118 172.21 500.544 172.784C499.97 173.358 499.192 173.68 498.38 173.68H482.08C481.268 173.68 480.49 173.358 479.916 172.784C479.342 172.21 479.02 171.432 479.02 170.62V79.6801C479.02 78.8686 479.342 78.0902 479.916 77.5164C480.49 76.9425 481.268 76.6201 482.08 76.6201H498.44C499.252 76.6201 500.03 76.9425 500.604 77.5164C501.178 78.0902 501.5 78.8686 501.5 79.6801V102.85C501.501 103.423 501.662 103.984 501.966 104.469C502.27 104.954 502.704 105.345 503.218 105.596C503.733 105.847 504.308 105.949 504.877 105.889C505.447 105.83 505.988 105.612 506.44 105.26C507.81 104.23 509.277 103.336 510.82 102.59C514.953 100.626 519.484 99.64 524.06 99.7101C532.433 99.7101 539.153 102.487 544.22 108.04Z" fill="#2C2C2C"/>
<path d="M632.84 142.46H589.44C588.89 142.461 588.348 142.593 587.858 142.844C587.368 143.094 586.945 143.457 586.622 143.903C586.299 144.348 586.087 144.864 586.001 145.407C585.916 145.951 585.96 146.507 586.13 147.03C586.771 149.267 588 151.29 589.69 152.89C592.261 155.299 595.678 156.597 599.2 156.5C604.1 156.5 607.697 154.683 609.99 151.05C610.299 150.552 610.731 150.14 611.244 149.855C611.756 149.57 612.333 149.42 612.92 149.42H629.92C630.492 149.417 631.055 149.554 631.561 149.821C632.066 150.088 632.498 150.476 632.818 150.95C633.138 151.424 633.335 151.97 633.393 152.538C633.451 153.107 633.367 153.681 633.15 154.21C631.895 157.171 630.211 159.931 628.15 162.4C624.895 166.295 620.79 169.392 616.15 171.45C611.073 173.695 605.57 174.814 600.02 174.73C593.35 174.851 586.76 173.272 580.87 170.14C575.322 167.128 570.767 162.57 567.76 157.02C564.503 150.892 562.878 144.028 563.04 137.09C562.879 130.157 564.479 123.296 567.69 117.15C570.653 111.606 575.171 107.049 580.69 104.04C586.6 101.04 593.13 99.4645 599.758 99.4402C606.386 99.4159 612.928 100.943 618.86 103.9C624.301 106.814 628.786 111.233 631.78 116.63C634.985 122.541 636.592 129.187 636.44 135.91C636.44 136.98 636.44 138.07 636.34 139.19C636.284 140.079 635.89 140.912 635.239 141.52C634.589 142.128 633.73 142.464 632.84 142.46V142.46ZM609.44 130C609.988 130.006 610.53 129.882 611.02 129.637C611.511 129.393 611.936 129.034 612.261 128.593C612.585 128.151 612.8 127.638 612.887 127.097C612.973 126.555 612.93 126.001 612.76 125.48C612.117 123.674 611.014 122.068 609.56 120.82C606.814 118.507 603.309 117.292 599.72 117.41C596.257 117.31 592.875 118.476 590.21 120.69C588.767 121.927 587.611 123.462 586.82 125.19C586.594 125.718 586.502 126.294 586.555 126.866C586.608 127.438 586.802 127.988 587.121 128.465C587.44 128.943 587.873 129.334 588.381 129.602C588.889 129.87 589.456 130.007 590.03 130H609.44Z" fill="#2C2C2C"/>
<path d="M680.66 339.92C688.723 339.92 695.26 333.384 695.26 325.32C695.26 317.257 688.723 310.72 680.66 310.72C672.597 310.72 666.06 317.257 666.06 325.32C666.06 333.384 672.597 339.92 680.66 339.92Z" fill="#2C2C2C"/>
<path d="M163.88 164.09V187.67C163.43 187.67 163.01 187.78 162.6 187.78C155.68 187.78 148.77 187.78 141.86 187.78C140.55 187.78 140.24 187.37 140.25 186.13C140.31 179.263 140.31 172.397 140.25 165.53C140.25 164.39 140.49 163.94 141.76 163.95C148.76 164.01 155.68 163.95 162.64 163.95C163.02 164.02 163.44 164.06 163.88 164.09ZM159.15 168.82H145.83C144.83 168.82 144.98 169.54 144.98 170.16C144.98 173.97 144.98 177.78 144.98 181.6C144.98 182.79 145.42 183.05 146.5 183.04C150.36 183.04 154.22 183.04 158.08 183.04C158.453 183.017 158.823 182.971 159.19 182.9L159.15 168.82Z" fill="#2C2C2C"/>
<path d="M163.88 159.21C163.44 159.21 163.11 159.31 162.79 159.31C155.72 159.31 148.66 159.31 141.6 159.31C140.6 159.31 140.25 159.04 140.26 158.01C140.26 150.94 140.26 143.88 140.26 136.82C140.26 136.04 140.35 135.54 141.34 135.55C148.64 135.55 155.94 135.55 163.25 135.55C163.46 135.577 163.667 135.621 163.87 135.68L163.88 159.21ZM152.09 140.33C150.09 140.33 148.09 140.33 146.15 140.33C145.27 140.33 144.95 140.65 144.96 141.52C144.96 145.48 144.96 149.443 144.96 153.41C144.96 154.25 145.2 154.63 146.11 154.62C150.11 154.62 154.11 154.62 158.11 154.62C158.9 154.62 159.2 154.34 159.2 153.51C159.2 149.51 159.2 145.51 159.2 141.51C159.2 140.6 158.85 140.33 158 140.35C156.05 140.33 154.07 140.33 152.09 140.33Z" fill="#2C2C2C"/>
<path d="M168.83 135.68C169.33 135.68 169.75 135.59 170.17 135.59C177.09 135.59 184 135.59 190.91 135.59C192 135.59 192.45 135.82 192.44 137.02C192.39 144.02 192.44 151.02 192.44 158.02C192.44 158.89 192.28 159.33 191.26 159.32C184.05 159.32 176.85 159.32 169.65 159.32C169.382 159.305 169.115 159.275 168.85 159.23L168.83 135.68ZM180.5 154.55C182.5 154.55 184.5 154.55 186.44 154.55C187.37 154.55 187.72 154.25 187.72 153.3C187.68 149.34 187.68 145.383 187.72 141.43C187.72 140.53 187.38 140.25 186.53 140.25C182.57 140.25 178.613 140.25 174.66 140.25C173.79 140.25 173.45 140.53 173.46 141.42C173.46 145.37 173.46 149.33 173.46 153.29C173.46 154.23 173.79 154.57 174.73 154.54C176.64 154.51 178.57 154.55 180.5 154.55Z" fill="#2C2C2C"/>
<path d="M187.69 164.09H192.44C192.44 166.09 192.44 168.01 192.44 169.93C192.44 172.34 192.44 174.76 192.44 177.18C192.44 177.97 192.21 178.3 191.37 178.29C187.37 178.29 183.37 178.29 179.37 178.29C178.55 178.29 178.2 177.98 178.26 177.19V176.9C178.18 173.44 178.18 173.48 174.79 173.53C173.74 173.53 173.48 173.94 173.49 174.91C173.49 178.72 173.49 182.54 173.49 186.36C173.49 187.53 173.11 187.91 171.98 187.82C170.85 187.73 169.98 187.82 168.85 187.82V164.01H171.1C174.53 164.01 177.96 164.06 181.39 164.01C182.54 164.01 183 164.23 182.99 165.5C182.94 169.08 182.99 169.06 186.61 168.85C187.4 168.8 187.74 168.55 187.71 167.74C187.67 166.57 187.69 165.42 187.69 164.09Z" fill="#2C2C2C"/>
<path d="M192.44 183.15V187C192.45 187.05 192.45 187.101 192.44 187.15C191.44 188.54 189.97 187.52 188.74 187.74C188.48 187.74 187.81 187.1 187.81 186.74C187.81 182.22 187.12 183.19 191.19 183.08C191.44 183.08 191.79 183.12 192.44 183.15Z" fill="#2C2C2C"/>
<path d="M182.95 185.62C182.95 187.79 182.95 187.81 180.95 187.78C178.21 187.78 178.24 188.29 178.25 185.69C178.25 182.69 178.05 183.08 180.45 183.09C183.26 183.1 182.91 182.66 182.95 185.62Z" fill="#2C2C2C"/>
<path d="M149.76 175.93C149.76 173.57 149.76 173.57 151.61 173.57C154.46 173.57 154.46 173.57 154.47 175.05C154.47 178.27 154.47 178.27 151.77 178.28C149.76 178.33 149.76 178.33 149.76 175.93Z" fill="#2C2C2C"/>
<path d="M154.44 147.47C154.38 149.93 155.01 149.8 152.01 149.78C149.31 149.78 149.77 150.12 149.73 146.86C149.73 145.05 149.73 145.04 152.25 145.06C154.77 145.08 154.44 144.88 154.44 147.47Z" fill="#2C2C2C"/>
<path d="M180.76 145.06C182.94 145.06 182.94 145.06 182.95 147.23C182.95 149.78 182.95 149.8 180.95 149.78C177.81 149.78 178.19 150.15 178.17 147.31C178.15 144.47 178.12 145.11 180.76 145.06Z" fill="#2C2C2C"/>
</g>
<defs>
<filter id="filter0_d_1103_2" x="0" y="0" width="699.26" height="349.727" filterUnits="userSpaceOnUse" color-interpolation-filters="sRGB">
<feFlood flood-opacity="0" result="BackgroundImageFix"/>
<feColorMatrix in="SourceAlpha" type="matrix" values="0 0 0 0 0 0 0 0 0 0 0 0 0 0 0 0 0 0 127 0" result="hardAlpha"/>
<feOffset dy="4"/>
<feGaussianBlur stdDeviation="2"/>
<feComposite in2="hardAlpha" operator="out"/>
<feColorMatrix type="matrix" values="0 0 0 0 0 0 0 0 0 0 0 0 0 0 0 0 0 0 0.25 0"/>
<feBlend mode="normal" in2="BackgroundImageFix" result="effect1_dropShadow_1103_2"/>
<feBlend mode="normal" in="SourceGraphic" in2="effect1_dropShadow_1103_2" result="shape"/>
</filter>
</defs>
</svg>
